<svg width="16" height="10" viewBox="0 0 16 10" fill="none" xmlns="http://www.w3.org/2000/svg">
<g clip-path="url(#clip0_63_2)">
<path d="M10.7648 3.9303C10.6565 4.51833 10.3727 5.01988 9.95088 5.44288C9.83711 5.55665 9.73411 5.67928 9.64549 5.81413C9.35735 6.25246 9.25076 6.73892 9.27423 7.25725C9.27854 7.34036 9.25579 7.36623 9.16884 7.36431C8.76381 7.36 8.35687 7.3624 7.9504 7.3624C7.5528 7.3624 7.15447 7.3588 6.75663 7.36551C6.65076 7.36671 6.61004 7.34587 6.61627 7.23018C6.63471 6.91138 6.59591 6.59856 6.49196 6.29318C6.35663 5.89845 6.08621 5.6012 5.81531 5.29653C5.16286 4.56264 4.93507 3.70204 5.1504 2.74659C5.16214 2.69605 5.17435 2.64623 5.18848 2.59689C5.38106 2.65485 5.56286 2.74036 5.7322 2.85533C6.01483 3.04791 6.19136 3.32623 6.37244 3.60647C6.81004 4.2812 7.43998 4.64863 8.24142 4.68575C9.53483 4.74611 10.5902 3.76719 10.6891 2.53653C10.7075 2.59569 10.7236 2.65605 10.7377 2.71641C10.829 3.10156 10.8419 3.51282 10.7648 3.9303Z" fill="white"/>
<path d="M7.93462 7.79761C7.6048 7.79761 7.27474 7.80001 6.94492 7.7957C6.86444 7.79474 6.8321 7.81007 6.83594 7.89917C6.84336 8.07186 6.83618 8.24504 6.83857 8.41797C6.84097 8.58971 6.92456 8.68384 7.09558 8.68504C7.66276 8.68935 8.23019 8.68935 8.79737 8.68504C8.96839 8.68384 9.05198 8.58971 9.05438 8.41797C9.05677 8.24096 9.05055 8.06372 9.05701 7.88695C9.05989 7.80767 9.03019 7.79546 8.96025 7.79593C8.61869 7.79929 8.27665 7.79761 7.93462 7.79761Z" fill="white"/>
<path d="M7.32764 9.13007C7.43398 9.40456 7.66991 9.56528 7.95327 9.56408C8.228 9.56288 8.46249 9.39929 8.56548 9.13007C8.15327 9.13007 7.74464 9.13007 7.32764 9.13007Z" fill="white"/>
<path d="M8.27349 3.59209C9.11799 3.59209 9.80259 2.90749 9.80259 2.06299C9.80259 1.21849 9.11799 0.53389 8.27349 0.53389C7.42899 0.53389 6.74438 1.21849 6.74438 2.06299C6.74438 2.90749 7.42899 3.59209 8.27349 3.59209Z" fill="white"/>
</g>
<defs>
<clipPath id="clip0_63_2">
<rect width="16" height="9.89221" fill="white"/>
</clipPath>
</defs>
</svg>
